<svg xmlns="http://www.w3.org/2000/svg" viewBox="0 0 1600 1000" preserveAspectRatio="xMidYMid slice" shape-rendering="crispEdges"><rect width="1600" height="1000" fill="#e0e2e7"/><polygon points="0.0,0.0 88.0,0.0 108.7,130.4" fill="#e3e5ea"/><polygon points="0.0,0.0 108.7,130.4 0.0,81.2" fill="#dbdde1"/><polygon points="88.0,0.0 176.3,0.0 108.7,130.4" fill="#e1e3e8"/><polygon points="176.3,0.0 205.2,93.0 108.7,130.4" fill="#e0e2e7"/><polygon points="176.3,0.0 310.3,0.0 332.4,69.2" fill="#dcdee2"/><polygon points="176.3,0.0 332.4,69.2 205.2,93.0" fill="#dfe1e6"/><polygon points="310.3,0.0 370.9,0.0 332.4,69.2" fill="#e3e5ea"/><polygon points="370.9,0.0 424.4,85.7 332.4,69.2" fill="#e3e4e9"/><polygon points="370.9,0.0 502.4,0.0 475.8,74.0" fill="#dddfe4"/><polygon points="370.9,0.0 475.8,74.0 424.4,85.7" fill="#e9eaef"/><polygon points="502.4,0.0 590.9,0.0 475.8,74.0" fill="#e7e8ed"/><polygon points="590.9,0.0 587.0,121.5 475.8,74.0" fill="#e9ebf0"/><polygon points="590.9,0.0 669.9,0.0 678.3,105.5" fill="#dfe1e6"/><polygon points="590.9,0.0 678.3,105.5 587.0,121.5" fill="#e1e3e8"/><polygon points="669.9,0.0 800.5,0.0 678.3,105.5" fill="#dfe1e5"/><polygon points="800.5,0.0 809.4,91.3 678.3,105.5" fill="#e8eaef"/><polygon points="800.5,0.0 868.5,0.0 903.2,70.3" fill="#e3e4e9"/><polygon points="800.5,0.0 903.2,70.3 809.4,91.3" fill="#e1e3e7"/><polygon points="868.5,0.0 995.5,0.0 903.2,70.3" fill="#e5e6eb"/><polygon points="995.5,0.0 970.1,80.0 903.2,70.3" fill="#ebedf1"/><polygon points="995.5,0.0 1070.8,0.0 1112.3,95.1" fill="#ebecf0"/><polygon points="995.5,0.0 1112.3,95.1 970.1,80.0" fill="#e4e5ea"/><polygon points="1070.8,0.0 1172.2,0.0 1112.3,95.1" fill="#e3e4e9"/><polygon points="1172.2,0.0 1187.4,105.8 1112.3,95.1" fill="#edeef2"/><polygon points="1172.2,0.0 1294.9,0.0 1296.8,86.4" fill="#e9eaee"/><polygon points="1172.2,0.0 1296.8,86.4 1187.4,105.8" fill="#eaecf0"/><polygon points="1294.9,0.0 1422.2,0.0 1296.8,86.4" fill="#e4e5e9"/><polygon points="1422.2,0.0 1420.0,113.5 1296.8,86.4" fill="#e4e5e9"/><polygon points="1422.2,0.0 1474.4,0.0 1482.6,105.1" fill="#ecedf1"/><polygon points="1422.2,0.0 1482.6,105.1 1420.0,113.5" fill="#e9eaee"/><polygon points="1474.4,0.0 1600.0,0.0 1482.6,105.1" fill="#e5e6ea"/><polygon points="1600.0,0.0 1600.0,101.7 1482.6,105.1" fill="#f0f1f5"/><polygon points="0.0,81.2 108.7,130.4 0.0,225.5" fill="#e3e5e9"/><polygon points="108.7,130.4 115.6,185.6 0.0,225.5" fill="#e5e7ec"/><polygon points="108.7,130.4 205.2,93.0 232.7,174.0" fill="#dddfe3"/><polygon points="108.7,130.4 232.7,174.0 115.6,185.6" fill="#e6e8ed"/><polygon points="205.2,93.0 332.4,69.2 232.7,174.0" fill="#dddfe4"/><polygon points="332.4,69.2 294.4,217.5 232.7,174.0" fill="#e7e9ee"/><polygon points="332.4,69.2 424.4,85.7 376.3,199.2" fill="#e2e4e9"/><polygon points="332.4,69.2 376.3,199.2 294.4,217.5" fill="#e1e3e8"/><polygon points="424.4,85.7 475.8,74.0 376.3,199.2" fill="#e4e6ea"/><polygon points="475.8,74.0 468.7,211.4 376.3,199.2" fill="#e9ebef"/><polygon points="475.8,74.0 587.0,121.5 618.0,205.0" fill="#e2e3e8"/><polygon points="475.8,74.0 618.0,205.0 468.7,211.4" fill="#e0e2e6"/><polygon points="587.0,121.5 678.3,105.5 618.0,205.0" fill="#e5e7eb"/><polygon points="678.3,105.5 725.5,187.3 618.0,205.0" fill="#e2e4e8"/><polygon points="678.3,105.5 809.4,91.3 813.3,206.4" fill="#e1e3e7"/><polygon points="678.3,105.5 813.3,206.4 725.5,187.3" fill="#e2e3e8"/><polygon points="809.4,91.3 903.2,70.3 813.3,206.4" fill="#e1e2e7"/><polygon points="903.2,70.3 905.4,197.0 813.3,206.4" fill="#e3e5e9"/><polygon points="903.2,70.3 970.1,80.0 1023.1,230.2" fill="#e5e6ea"/><polygon points="903.2,70.3 1023.1,230.2 905.4,197.0" fill="#e5e6eb"/><polygon points="970.1,80.0 1112.3,95.1 1023.1,230.2" fill="#ebecf0"/><polygon points="1112.3,95.1 1098.2,211.2 1023.1,230.2" fill="#e6e7eb"/><polygon points="1112.3,95.1 1187.4,105.8 1170.1,213.7" fill="#e8eaee"/><polygon points="1112.3,95.1 1170.1,213.7 1098.2,211.2" fill="#e4e6ea"/><polygon points="1187.4,105.8 1296.8,86.4 1170.1,213.7" fill="#e7e8ec"/><polygon points="1296.8,86.4 1310.0,233.5 1170.1,213.7" fill="#e3e5e9"/><polygon points="1296.8,86.4 1420.0,113.5 1421.9,185.4" fill="#e7e8ec"/><polygon points="1296.8,86.4 1421.9,185.4 1310.0,233.5" fill="#e4e5e9"/><polygon points="1420.0,113.5 1482.6,105.1 1421.9,185.4" fill="#edeef2"/><polygon points="1482.6,105.1 1492.2,211.5 1421.9,185.4" fill="#ebedf0"/><polygon points="1482.6,105.1 1600.0,101.7 1600.0,167.5" fill="#e7e8ec"/><polygon points="1482.6,105.1 1600.0,167.5 1492.2,211.5" fill="#ebecf0"/><polygon points="0.0,225.5 115.6,185.6 77.4,274.0" fill="#e7e9ee"/><polygon points="0.0,225.5 77.4,274.0 0.0,297.4" fill="#dddfe4"/><polygon points="115.6,185.6 232.7,174.0 77.4,274.0" fill="#e6e8ed"/><polygon points="232.7,174.0 170.0,318.2 77.4,274.0" fill="#e2e4e8"/><polygon points="232.7,174.0 294.4,217.5 274.8,282.8" fill="#e3e5ea"/><polygon points="232.7,174.0 274.8,282.8 170.0,318.2" fill="#e7e9ee"/><polygon points="294.4,217.5 376.3,199.2 274.8,282.8" fill="#e2e4e9"/><polygon points="376.3,199.2 392.6,325.3 274.8,282.8" fill="#e4e6ea"/><polygon points="376.3,199.2 468.7,211.4 471.5,296.5" fill="#e7e8ed"/><polygon points="376.3,199.2 471.5,296.5 392.6,325.3" fill="#eaecf1"/><polygon points="468.7,211.4 618.0,205.0 471.5,296.5" fill="#e3e5e9"/><polygon points="618.0,205.0 603.4,326.1 471.5,296.5" fill="#eaebf0"/><polygon points="618.0,205.0 725.5,187.3 721.7,324.8" fill="#e9eaee"/><polygon points="618.0,205.0 721.7,324.8 603.4,326.1" fill="#e8e9ee"/><polygon points="725.5,187.3 813.3,206.4 721.7,324.8" fill="#e5e7eb"/><polygon points="813.3,206.4 784.9,294.2 721.7,324.8" fill="#e5e7eb"/><polygon points="813.3,206.4 905.4,197.0 890.4,326.1" fill="#e2e4e8"/><polygon points="813.3,206.4 890.4,326.1 784.9,294.2" fill="#e3e4e9"/><polygon points="905.4,197.0 1023.1,230.2 890.4,326.1" fill="#e3e4e8"/><polygon points="1023.1,230.2 1031.1,276.3 890.4,326.1" fill="#ebedf1"/><polygon points="1023.1,230.2 1098.2,211.2 1078.0,281.8" fill="#e6e7eb"/><polygon points="1023.1,230.2 1078.0,281.8 1031.1,276.3" fill="#e5e6ea"/><polygon points="1098.2,211.2 1170.1,213.7 1078.0,281.8" fill="#e4e5e9"/><polygon points="1170.1,213.7 1181.9,299.0 1078.0,281.8" fill="#edeff3"/><polygon points="1170.1,213.7 1310.0,233.5 1306.1,283.9" fill="#eef0f4"/><polygon points="1170.1,213.7 1306.1,283.9 1181.9,299.0" fill="#ecedf1"/><polygon points="1310.0,233.5 1421.9,185.4 1306.1,283.9" fill="#e8e9ed"/><polygon points="1421.9,185.4 1366.3,294.5 1306.1,283.9" fill="#e7e9ed"/><polygon points="1421.9,185.4 1492.2,211.5 1491.1,304.5" fill="#e9eaee"/><polygon points="1421.9,185.4 1491.1,304.5 1366.3,294.5" fill="#ebecf0"/><polygon points="1492.2,211.5 1600.0,167.5 1491.1,304.5" fill="#e7e9ec"/><polygon points="1600.0,167.5 1600.0,330.8 1491.1,304.5" fill="#ebedf0"/><polygon points="0.0,297.4 77.4,274.0 0.0,413.0" fill="#e0e1e6"/><polygon points="77.4,274.0 101.1,408.0 0.0,413.0" fill="#e9eaef"/><polygon points="77.4,274.0 170.0,318.2 212.0,369.7" fill="#e9ebef"/><polygon points="77.4,274.0 212.0,369.7 101.1,408.0" fill="#e4e6ea"/><polygon points="170.0,318.2 274.8,282.8 212.0,369.7" fill="#e1e2e7"/><polygon points="274.8,282.8 327.2,419.0 212.0,369.7" fill="#eaecf0"/><polygon points="274.8,282.8 392.6,325.3 425.5,420.3" fill="#e3e4e9"/><polygon points="274.8,282.8 425.5,420.3 327.2,419.0" fill="#e3e5e9"/><polygon points="392.6,325.3 471.5,296.5 425.5,420.3" fill="#dfe1e5"/><polygon points="471.5,296.5 492.7,393.1 425.5,420.3" fill="#e4e6ea"/><polygon points="471.5,296.5 603.4,326.1 573.0,409.1" fill="#e6e7ec"/><polygon points="471.5,296.5 573.0,409.1 492.7,393.1" fill="#e6e8ec"/><polygon points="603.4,326.1 721.7,324.8 573.0,409.1" fill="#e3e5e9"/><polygon points="721.7,324.8 670.2,370.6 573.0,409.1" fill="#e7e9ed"/><polygon points="721.7,324.8 784.9,294.2 780.2,377.0" fill="#e1e3e7"/><polygon points="721.7,324.8 780.2,377.0 670.2,370.6" fill="#e4e6ea"/><polygon points="784.9,294.2 890.4,326.1 780.2,377.0" fill="#e3e4e8"/><polygon points="890.4,326.1 889.1,369.6 780.2,377.0" fill="#e7e8ed"/><polygon points="890.4,326.1 1031.1,276.3 966.0,376.3" fill="#e3e5e9"/><polygon points="890.4,326.1 966.0,376.3 889.1,369.6" fill="#e3e4e8"/><polygon points="1031.1,276.3 1078.0,281.8 966.0,376.3" fill="#e7e8ec"/><polygon points="1078.0,281.8 1072.9,390.7 966.0,376.3" fill="#e6e8ec"/><polygon points="1078.0,281.8 1181.9,299.0 1167.7,425.5" fill="#ebecf0"/><polygon points="1078.0,281.8 1167.7,425.5 1072.9,390.7" fill="#eaecf0"/><polygon points="1181.9,299.0 1306.1,283.9 1167.7,425.5" fill="#edeff3"/><polygon points="1306.1,283.9 1307.8,376.1 1167.7,425.5" fill="#edeef2"/><polygon points="1306.1,283.9 1366.3,294.5 1383.2,389.6" fill="#eeeff3"/><polygon points="1306.1,283.9 1383.2,389.6 1307.8,376.1" fill="#f0f1f5"/><polygon points="1366.3,294.5 1491.1,304.5 1383.2,389.6" fill="#eaecef"/><polygon points="1491.1,304.5 1490.8,374.4 1383.2,389.6" fill="#eaebef"/><polygon points="1491.1,304.5 1600.0,330.8 1600.0,423.7" fill="#f3f4f7"/><polygon points="1491.1,304.5 1600.0,423.7 1490.8,374.4" fill="#e8eaed"/><polygon points="0.0,413.0 101.1,408.0 97.7,498.9" fill="#e6e8ed"/><polygon points="0.0,413.0 97.7,498.9 0.0,533.5" fill="#e6e7ec"/><polygon points="101.1,408.0 212.0,369.7 97.7,498.9" fill="#dfe0e5"/><polygon points="212.0,369.7 171.8,472.9 97.7,498.9" fill="#e8eaef"/><polygon points="212.0,369.7 327.2,419.0 289.3,484.0" fill="#eaebf0"/><polygon points="212.0,369.7 289.3,484.0 171.8,472.9" fill="#e6e8ec"/><polygon points="327.2,419.0 425.5,420.3 289.3,484.0" fill="#e8eaee"/><polygon points="425.5,420.3 422.4,477.0 289.3,484.0" fill="#eaebf0"/><polygon points="425.5,420.3 492.7,393.1 467.6,530.7" fill="#e2e4e8"/><polygon points="425.5,420.3 467.6,530.7 422.4,477.0" fill="#e7e8ed"/><polygon points="492.7,393.1 573.0,409.1 467.6,530.7" fill="#e7e8ed"/><polygon points="573.0,409.1 601.9,476.0 467.6,530.7" fill="#ebedf1"/><polygon points="573.0,409.1 670.2,370.6 702.9,467.8" fill="#ebedf1"/><polygon points="573.0,409.1 702.9,467.8 601.9,476.0" fill="#ebedf1"/><polygon points="670.2,370.6 780.2,377.0 702.9,467.8" fill="#e9eaee"/><polygon points="780.2,377.0 801.9,532.5 702.9,467.8" fill="#edeff3"/><polygon points="780.2,377.0 889.1,369.6 924.7,513.3" fill="#ebecf0"/><polygon points="780.2,377.0 924.7,513.3 801.9,532.5" fill="#ebedf1"/><polygon points="889.1,369.6 966.0,376.3 924.7,513.3" fill="#e6e7eb"/><polygon points="966.0,376.3 983.8,490.9 924.7,513.3" fill="#e4e6e9"/><polygon points="966.0,376.3 1072.9,390.7 1077.4,518.5" fill="#e6e7eb"/><polygon points="966.0,376.3 1077.4,518.5 983.8,490.9" fill="#e8eaee"/><polygon points="1072.9,390.7 1167.7,425.5 1077.4,518.5" fill="#e6e7eb"/><polygon points="1167.7,425.5 1202.2,519.0 1077.4,518.5" fill="#eff1f4"/><polygon points="1167.7,425.5 1307.8,376.1 1288.4,481.2" fill="#ecedf1"/><polygon points="1167.7,425.5 1288.4,481.2 1202.2,519.0" fill="#edeef2"/><polygon points="1307.8,376.1 1383.2,389.6 1288.4,481.2" fill="#edeff2"/><polygon points="1383.2,389.6 1421.2,533.0 1288.4,481.2" fill="#eff0f4"/><polygon points="1383.2,389.6 1490.8,374.4 1524.0,520.8" fill="#edeef2"/><polygon points="1383.2,389.6 1524.0,520.8 1421.2,533.0" fill="#e7e8ec"/><polygon points="1490.8,374.4 1600.0,423.7 1524.0,520.8" fill="#f1f2f6"/><polygon points="1600.0,423.7 1600.0,521.6 1524.0,520.8" fill="#f1f2f6"/><polygon points="0.0,533.5 97.7,498.9 0.0,616.3" fill="#e4e6eb"/><polygon points="97.7,498.9 81.4,601.2 0.0,616.3" fill="#e5e7eb"/><polygon points="97.7,498.9 171.8,472.9 190.2,568.0" fill="#e7e9ed"/><polygon points="97.7,498.9 190.2,568.0 81.4,601.2" fill="#e0e2e6"/><polygon points="171.8,472.9 289.3,484.0 190.2,568.0" fill="#e8eaee"/><polygon points="289.3,484.0 267.9,585.0 190.2,568.0" fill="#e3e4e9"/><polygon points="289.3,484.0 422.4,477.0 383.6,613.1" fill="#e1e3e7"/><polygon points="289.3,484.0 383.6,613.1 267.9,585.0" fill="#e4e5e9"/><polygon points="422.4,477.0 467.6,530.7 383.6,613.1" fill="#eaebef"/><polygon points="467.6,530.7 531.0,596.4 383.6,613.1" fill="#e4e6ea"/><polygon points="467.6,530.7 601.9,476.0 629.7,633.2" fill="#ebecf0"/><polygon points="467.6,530.7 629.7,633.2 531.0,596.4" fill="#eeeff3"/><polygon points="601.9,476.0 702.9,467.8 629.7,633.2" fill="#e8eaee"/><polygon points="702.9,467.8 730.9,590.8 629.7,633.2" fill="#e7e9ed"/><polygon points="702.9,467.8 801.9,532.5 781.0,581.4" fill="#e9eaee"/><polygon points="702.9,467.8 781.0,581.4 730.9,590.8" fill="#ebedf1"/><polygon points="801.9,532.5 924.7,513.3 781.0,581.4" fill="#edeef2"/><polygon points="924.7,513.3 879.4,579.9 781.0,581.4" fill="#ebedf1"/><polygon points="924.7,513.3 983.8,490.9 1008.4,627.2" fill="#eceef1"/><polygon points="924.7,513.3 1008.4,627.2 879.4,579.9" fill="#e5e7eb"/><polygon points="983.8,490.9 1077.4,518.5 1008.4,627.2" fill="#e7e8ec"/><polygon points="1077.4,518.5 1123.1,598.6 1008.4,627.2" fill="#e9eaee"/><polygon points="1077.4,518.5 1202.2,519.0 1210.4,620.4" fill="#eff0f4"/><polygon points="1077.4,518.5 1210.4,620.4 1123.1,598.6" fill="#eaebef"/><polygon points="1202.2,519.0 1288.4,481.2 1210.4,620.4" fill="#edeef2"/><polygon points="1288.4,481.2 1271.8,610.9 1210.4,620.4" fill="#e7e8ec"/><polygon points="1288.4,481.2 1421.2,533.0 1427.9,619.2" fill="#e8e9ed"/><polygon points="1288.4,481.2 1427.9,619.2 1271.8,610.9" fill="#eaecef"/><polygon points="1421.2,533.0 1524.0,520.8 1427.9,619.2" fill="#f0f1f5"/><polygon points="1524.0,520.8 1517.0,598.5 1427.9,619.2" fill="#f0f2f5"/><polygon points="1524.0,520.8 1600.0,521.6 1600.0,578.1" fill="#f1f2f5"/><polygon points="1524.0,520.8 1600.0,578.1 1517.0,598.5" fill="#ecedf1"/><polygon points="0.0,616.3 81.4,601.2 88.6,720.5" fill="#e6e7ec"/><polygon points="0.0,616.3 88.6,720.5 0.0,719.7" fill="#e5e7eb"/><polygon points="81.4,601.2 190.2,568.0 88.6,720.5" fill="#e5e7eb"/><polygon points="190.2,568.0 232.1,692.9 88.6,720.5" fill="#e2e3e8"/><polygon points="190.2,568.0 267.9,585.0 293.3,730.4" fill="#ebedf1"/><polygon points="190.2,568.0 293.3,730.4 232.1,692.9" fill="#e3e5e9"/><polygon points="267.9,585.0 383.6,613.1 293.3,730.4" fill="#edeef3"/><polygon points="383.6,613.1 415.3,677.6 293.3,730.4" fill="#edeef3"/><polygon points="383.6,613.1 531.0,596.4 474.6,676.3" fill="#e2e4e8"/><polygon points="383.6,613.1 474.6,676.3 415.3,677.6" fill="#e7e9ed"/><polygon points="531.0,596.4 629.7,633.2 474.6,676.3" fill="#eceef2"/><polygon points="629.7,633.2 627.5,720.8 474.6,676.3" fill="#eff0f4"/><polygon points="629.7,633.2 730.9,590.8 675.9,722.2" fill="#e9eaee"/><polygon points="629.7,633.2 675.9,722.2 627.5,720.8" fill="#e7e8ec"/><polygon points="730.9,590.8 781.0,581.4 675.9,722.2" fill="#e6e8ec"/><polygon points="781.0,581.4 832.7,710.7 675.9,722.2" fill="#f0f1f5"/><polygon points="781.0,581.4 879.4,579.9 889.8,703.3" fill="#e7e8ec"/><polygon points="781.0,581.4 889.8,703.3 832.7,710.7" fill="#ecedf1"/><polygon points="879.4,579.9 1008.4,627.2 889.8,703.3" fill="#e7e8ec"/><polygon points="1008.4,627.2 974.9,667.0 889.8,703.3" fill="#ecedf1"/><polygon points="1008.4,627.2 1123.1,598.6 1132.0,710.2" fill="#f2f3f7"/><polygon points="1008.4,627.2 1132.0,710.2 974.9,667.0" fill="#e8e9ed"/><polygon points="1123.1,598.6 1210.4,620.4 1132.0,710.2" fill="#f0f2f5"/><polygon points="1210.4,620.4 1201.8,729.5 1132.0,710.2" fill="#edeef2"/><polygon points="1210.4,620.4 1271.8,610.9 1295.5,725.3" fill="#f2f3f7"/><polygon points="1210.4,620.4 1295.5,725.3 1201.8,729.5" fill="#f0f1f5"/><polygon points="1271.8,610.9 1427.9,619.2 1295.5,725.3" fill="#ebecef"/><polygon points="1427.9,619.2 1422.2,680.4 1295.5,725.3" fill="#f3f4f8"/><polygon points="1427.9,619.2 1517.0,598.5 1483.1,685.9" fill="#eef0f3"/><polygon points="1427.9,619.2 1483.1,685.9 1422.2,680.4" fill="#e9eaee"/><polygon points="1517.0,598.5 1600.0,578.1 1483.1,685.9" fill="#e9eaed"/><polygon points="1600.0,578.1 1600.0,682.4 1483.1,685.9" fill="#eff0f4"/><polygon points="0.0,719.7 88.6,720.5 0.0,805.9" fill="#e6e7eb"/><polygon points="88.6,720.5 83.6,794.5 0.0,805.9" fill="#e4e6ea"/><polygon points="88.6,720.5 232.1,692.9 174.9,827.9" fill="#e3e4e8"/><polygon points="88.6,720.5 174.9,827.9 83.6,794.5" fill="#e5e7eb"/><polygon points="232.1,692.9 293.3,730.4 174.9,827.9" fill="#e5e7eb"/><polygon points="293.3,730.4 290.1,797.2 174.9,827.9" fill="#eceef2"/><polygon points="293.3,730.4 415.3,677.6 405.7,827.5" fill="#e2e4e8"/><polygon points="293.3,730.4 405.7,827.5 290.1,797.2" fill="#ebedf1"/><polygon points="415.3,677.6 474.6,676.3 405.7,827.5" fill="#edeef2"/><polygon points="474.6,676.3 494.6,828.4 405.7,827.5" fill="#e5e6ea"/><polygon points="474.6,676.3 627.5,720.8 600.1,802.2" fill="#eff0f4"/><polygon points="474.6,676.3 600.1,802.2 494.6,828.4" fill="#eceef1"/><polygon points="627.5,720.8 675.9,722.2 600.1,802.2" fill="#eff0f4"/><polygon points="675.9,722.2 701.6,767.3 600.1,802.2" fill="#e8e9ed"/><polygon points="675.9,722.2 832.7,710.7 795.9,778.5" fill="#e9ebee"/><polygon points="675.9,722.2 795.9,778.5 701.6,767.3" fill="#e9ebef"/><polygon points="832.7,710.7 889.8,703.3 795.9,778.5" fill="#f1f3f6"/><polygon points="889.8,703.3 866.3,820.3 795.9,778.5" fill="#edeef2"/><polygon points="889.8,703.3 974.9,667.0 977.7,798.2" fill="#eaecef"/><polygon points="889.8,703.3 977.7,798.2 866.3,820.3" fill="#ebedf0"/><polygon points="974.9,667.0 1132.0,710.2 977.7,798.2" fill="#eaebef"/><polygon points="1132.0,710.2 1115.3,803.8 977.7,798.2" fill="#e8e9ed"/><polygon points="1132.0,710.2 1201.8,729.5 1188.2,801.2" fill="#e9eaee"/><polygon points="1132.0,710.2 1188.2,801.2 1115.3,803.8" fill="#f2f3f6"/><polygon points="1201.8,729.5 1295.5,725.3 1188.2,801.2" fill="#ebedf0"/><polygon points="1295.5,725.3 1303.8,819.3 1188.2,801.2" fill="#f4f5f8"/><polygon points="1295.5,725.3 1422.2,680.4 1373.2,804.1" fill="#ecedf0"/><polygon points="1295.5,725.3 1373.2,804.1 1303.8,819.3" fill="#ecedf1"/><polygon points="1422.2,680.4 1483.1,685.9 1373.2,804.1" fill="#eff0f4"/><polygon points="1483.1,685.9 1482.9,784.8 1373.2,804.1" fill="#ecedf0"/><polygon points="1483.1,685.9 1600.0,682.4 1600.0,818.5" fill="#eef0f3"/><polygon points="1483.1,685.9 1600.0,818.5 1482.9,784.8" fill="#f5f7fa"/><polygon points="0.0,805.9 83.6,794.5 104.2,917.7" fill="#ecedf1"/><polygon points="0.0,805.9 104.2,917.7 0.0,900.5" fill="#ebedf1"/><polygon points="83.6,794.5 174.9,827.9 104.2,917.7" fill="#e9ebef"/><polygon points="174.9,827.9 228.0,896.1 104.2,917.7" fill="#edeff3"/><polygon points="174.9,827.9 290.1,797.2 307.7,900.4" fill="#eeeff3"/><polygon points="174.9,827.9 307.7,900.4 228.0,896.1" fill="#e9ebef"/><polygon points="290.1,797.2 405.7,827.5 307.7,900.4" fill="#ecedf1"/><polygon points="405.7,827.5 400.8,913.1 307.7,900.4" fill="#e4e6e9"/><polygon points="405.7,827.5 494.6,828.4 496.8,902.3" fill="#edeef2"/><polygon points="405.7,827.5 496.8,902.3 400.8,913.1" fill="#e9ebef"/><polygon points="494.6,828.4 600.1,802.2 496.8,902.3" fill="#edeff3"/><polygon points="600.1,802.2 598.5,930.0 496.8,902.3" fill="#eceef2"/><polygon points="600.1,802.2 701.6,767.3 713.5,925.6" fill="#e8eaee"/><polygon points="600.1,802.2 713.5,925.6 598.5,930.0" fill="#e6e7eb"/><polygon points="701.6,767.3 795.9,778.5 713.5,925.6" fill="#f0f2f6"/><polygon points="795.9,778.5 830.1,883.7 713.5,925.6" fill="#e7e9ed"/><polygon points="795.9,778.5 866.3,820.3 904.0,930.1" fill="#ecedf1"/><polygon points="795.9,778.5 904.0,930.1 830.1,883.7" fill="#ebecef"/><polygon points="866.3,820.3 977.7,798.2 904.0,930.1" fill="#eaecef"/><polygon points="977.7,798.2 1023.1,875.3 904.0,930.1" fill="#f0f1f5"/><polygon points="977.7,798.2 1115.3,803.8 1074.3,896.1" fill="#f3f4f8"/><polygon points="977.7,798.2 1074.3,896.1 1023.1,875.3" fill="#ebecef"/><polygon points="1115.3,803.8 1188.2,801.2 1074.3,896.1" fill="#f0f1f5"/><polygon points="1188.2,801.2 1170.9,882.4 1074.3,896.1" fill="#ecedf1"/><polygon points="1188.2,801.2 1303.8,819.3 1271.0,911.5" fill="#f0f1f4"/><polygon points="1188.2,801.2 1271.0,911.5 1170.9,882.4" fill="#eeeff2"/><polygon points="1303.8,819.3 1373.2,804.1 1271.0,911.5" fill="#ebecf0"/><polygon points="1373.2,804.1 1419.3,927.0 1271.0,911.5" fill="#ecedf0"/><polygon points="1373.2,804.1 1482.9,784.8 1476.5,914.7" fill="#edeef1"/><polygon points="1373.2,804.1 1476.5,914.7 1419.3,927.0" fill="#f5f6fa"/><polygon points="1482.9,784.8 1600.0,818.5 1476.5,914.7" fill="#f1f2f5"/><polygon points="1600.0,818.5 1600.0,910.9 1476.5,914.7" fill="#eeeff2"/><polygon points="0.0,900.5 104.2,917.7 0.0,1000.0" fill="#edeef2"/><polygon points="104.2,917.7 75.7,1000.0 0.0,1000.0" fill="#eef0f4"/><polygon points="104.2,917.7 228.0,896.1 226.0,1000.0" fill="#e8eaee"/><polygon points="104.2,917.7 226.0,1000.0 75.7,1000.0" fill="#e4e6ea"/><polygon points="228.0,896.1 307.7,900.4 226.0,1000.0" fill="#e5e7eb"/><polygon points="307.7,900.4 331.8,1000.0 226.0,1000.0" fill="#e5e6ea"/><polygon points="307.7,900.4 400.8,913.1 380.9,1000.0" fill="#e8e9ed"/><polygon points="307.7,900.4 380.9,1000.0 331.8,1000.0" fill="#e5e7ea"/><polygon points="400.8,913.1 496.8,902.3 380.9,1000.0" fill="#e7e9ec"/><polygon points="496.8,902.3 530.8,1000.0 380.9,1000.0" fill="#e8e9ed"/><polygon points="496.8,902.3 598.5,930.0 593.1,1000.0" fill="#ecedf1"/><polygon points="496.8,902.3 593.1,1000.0 530.8,1000.0" fill="#f0f1f5"/><polygon points="598.5,930.0 713.5,925.6 593.1,1000.0" fill="#eff0f4"/><polygon points="713.5,925.6 699.1,1000.0 593.1,1000.0" fill="#ebecf0"/><polygon points="713.5,925.6 830.1,883.7 833.3,1000.0" fill="#ecedf1"/><polygon points="713.5,925.6 833.3,1000.0 699.1,1000.0" fill="#edeef2"/><polygon points="830.1,883.7 904.0,930.1 833.3,1000.0" fill="#ecedf0"/><polygon points="904.0,930.1 922.6,1000.0 833.3,1000.0" fill="#ecedf0"/><polygon points="904.0,930.1 1023.1,875.3 977.0,1000.0" fill="#e9eaed"/><polygon points="904.0,930.1 977.0,1000.0 922.6,1000.0" fill="#ebedf0"/><polygon points="1023.1,875.3 1074.3,896.1 977.0,1000.0" fill="#f4f5f8"/><polygon points="1074.3,896.1 1095.3,1000.0 977.0,1000.0" fill="#eaebef"/><polygon points="1074.3,896.1 1170.9,882.4 1201.1,1000.0" fill="#eff0f4"/><polygon points="1074.3,896.1 1201.1,1000.0 1095.3,1000.0" fill="#f1f2f5"/><polygon points="1170.9,882.4 1271.0,911.5 1201.1,1000.0" fill="#f4f5f8"/><polygon points="1271.0,911.5 1289.1,1000.0 1201.1,1000.0" fill="#edeef1"/><polygon points="1271.0,911.5 1419.3,927.0 1379.3,1000.0" fill="#eeeff2"/><polygon points="1271.0,911.5 1379.3,1000.0 1289.1,1000.0" fill="#edeef2"/><polygon points="1419.3,927.0 1476.5,914.7 1379.3,1000.0" fill="#f0f1f4"/><polygon points="1476.5,914.7 1487.7,1000.0 1379.3,1000.0" fill="#f1f2f5"/><polygon points="1476.5,914.7 1600.0,910.9 1600.0,1000.0" fill="#f7f8fb"/><polygon points="1476.5,914.7 1600.0,1000.0 1487.7,1000.0" fill="#f6f7fa"/></svg>